<svg width="32" height="32" viewBox="0 0 32 32" fill="none" xmlns="http://www.w3.org/2000/svg">
<path fill-rule="evenodd" clip-rule="evenodd" d="M5.33331 6.66663V25.3333C5.33331 27.5425 7.12418 29.3333 9.33332 29.3333H22.6667C24.8759 29.3333 26.6667 27.5425 26.6667 25.3333V12C26.6667 9.79082 24.8759 7.99996 22.6667 7.99996H6.66665C5.93027 7.99996 5.33331 7.403 5.33331 6.66663ZM9.66665 16C9.66665 15.4477 10.1144 15 10.6666 15H21.3333C21.8856 15 22.3333 15.4477 22.3333 16C22.3333 16.5522 21.8856 17 21.3333 17H10.6666C10.1144 17 9.66665 16.5522 9.66665 16ZM9.66665 20.6666C9.66665 20.1144 10.1144 19.6666 10.6666 19.6666H18C18.5523 19.6666 19 20.1144 19 20.6666C19 21.2189 18.5523 21.6666 18 21.6666H10.6666C10.1144 21.6666 9.66665 21.2189 9.66665 20.6666Z" fill="white"/>
<path d="M5.87842 5.44947C6.34306 5.65784 6.6667 6.12445 6.6667 6.66667H22.6667C23.1271 6.66667 23.5739 6.725 24 6.83469V5.74139C24 4.11859 22.5627 2.87203 20.9563 3.10152L6.55948 5.1582C6.30286 5.19487 6.07031 5.29832 5.87842 5.44947Z" fill="white"/>
</svg>
