<svg width="32" height="32" viewBox="0 0 32 32" fill="none" xmlns="http://www.w3.org/2000/svg">
<path d="M21.4259 13.2691C23.1985 13.269 24.7089 13.2689 25.9146 13.4053C26.1193 13.4285 26.3233 13.4564 26.5257 13.4904C27.2352 13.6094 27.9263 13.8044 28.5656 14.1417V13.0077C28.5656 11.7958 28.5657 10.7903 28.4518 9.9887C28.3319 9.14268 28.0701 8.39273 27.4445 7.77656C27.3425 7.67605 27.2348 7.58065 27.122 7.49072C26.4396 6.94693 25.6216 6.72456 24.6956 6.6214C23.8034 6.52202 22.6796 6.52205 21.302 6.52206H20.8316C19.5221 6.52206 19.0527 6.51445 18.6275 6.40706C18.3777 6.34398 18.138 6.25589 17.9131 6.145C17.534 5.95818 17.2037 5.67677 16.2763 4.85505L15.6441 4.295C15.3788 4.05981 15.1976 3.89929 15.0035 3.75669C14.1705 3.14501 13.1564 2.77505 12.0946 2.68708C11.8474 2.6666 11.5951 2.66661 11.2174 2.66665L11.0622 2.66664C10.208 2.66649 9.64421 2.6664 9.15471 2.74822C7.01491 3.10592 5.28457 4.60186 4.86312 6.58096C4.76723 7.03121 4.76737 7.54709 4.7676 8.29133L4.76763 14.1417C5.40696 13.8044 6.09808 13.6094 6.80745 13.4904C7.00993 13.4564 7.21389 13.4285 7.41857 13.4053C8.62428 13.2689 10.1347 13.269 11.9074 13.2691H21.4259Z" fill="white"/>
<path fill-rule="evenodd" clip-rule="evenodd" d="M4.47721 17.0384C3.66363 18.2936 3.99941 20.0389 4.67097 23.5294C5.1544 26.0422 5.39612 27.2986 6.23364 28.1324C6.45094 28.3486 6.69405 28.5404 6.95813 28.7037C7.97594 29.3333 9.32719 29.3333 12.0297 29.3333H21.3036C24.0061 29.3333 25.3575 29.3333 26.3752 28.7037C26.6393 28.5404 26.8824 28.3486 27.0997 28.1324C27.9372 27.2986 28.1789 26.0422 28.6624 23.5294C29.3339 20.0389 29.6697 18.2936 28.8561 17.0384C28.6485 16.7181 28.3924 16.4281 28.0961 16.1778C26.9348 15.1968 25.0577 15.1968 21.3036 15.1968H12.0297C8.27556 15.1968 6.39851 15.1968 5.23723 16.1778C4.94088 16.4281 4.68484 16.7181 4.47721 17.0384ZM12.9269 22.9076C12.9269 22.3753 13.3835 21.9437 13.9468 21.9437H19.3864C19.9496 21.9437 20.4063 22.3753 20.4063 22.9076C20.4063 23.44 19.9496 23.8714 19.3864 23.8714H13.9468C13.3835 23.8714 12.9269 23.44 12.9269 22.9076Z" fill="white"/>
</svg>
