<svg width="32" height="32" viewBox="0 0 32 32" fill="none" xmlns="http://www.w3.org/2000/svg">
<path d="M14.6667 17C15.5872 17 16.3333 17.7461 16.3333 18.6667C16.3333 19.5872 15.5872 20.3333 14.6667 20.3333C13.7461 20.3333 13 19.5872 13 18.6667C13 17.7461 13.7461 17 14.6667 17Z" fill="white"/>
<path fill-rule="evenodd" clip-rule="evenodd" d="M8.55817 10.6667C8.55817 6.89545 8.55817 5.00983 9.64799 3.83826C10.7378 2.66669 12.4919 2.66669 16 2.66669C19.5082 2.66669 21.2622 2.66669 22.352 3.83826C23.4419 5.00983 23.4419 6.89545 23.4419 10.6667V21.3334C23.4419 25.1045 23.4419 26.9902 22.352 28.1617C21.2622 29.3333 19.5082 29.3333 16 29.3333C12.4919 29.3333 10.7378 29.3333 9.64799 28.1617C8.55817 26.9902 8.55817 25.1045 8.55817 21.3334V10.6667ZM18.3334 10.6667C18.3334 10.1144 17.8856 9.66669 17.3334 9.66669C16.7811 9.66669 16.3334 10.1144 16.3334 10.6667V15.3999C15.8334 15.1442 15.2668 15 14.6667 15C12.6416 15 11 16.6416 11 18.6667C11 20.6918 12.6416 22.3334 14.6667 22.3334C16.6918 22.3334 18.3334 20.6918 18.3334 18.6667V13.9335C18.8334 14.1892 19.3999 14.3334 20 14.3334C20.5523 14.3334 21 13.8856 21 13.3334C21 12.7811 20.5523 12.3334 20 12.3334C19.0795 12.3334 18.3334 11.5872 18.3334 10.6667Z" fill="white"/>
<path d="M6.69769 10.535V21.4649C6.69762 22.7753 6.69757 23.9517 6.7593 24.9703C6.7811 25.3299 6.81059 25.6697 6.85051 25.9889C6.86845 26.1323 6.88883 26.2749 6.91217 26.4168C6.95959 26.7051 6.73678 26.9768 6.44582 26.9512C5.87123 26.9008 5.3523 26.7932 4.86766 26.5277C4.10917 26.1123 3.49251 25.4493 3.10605 24.634C2.8591 24.1129 2.75897 23.5551 2.71202 22.9375C2.66667 22.3407 2.66667 21.6064 2.66669 20.7085V11.2914C2.66667 10.3936 2.66667 9.65933 2.71202 9.06257C2.75897 8.44489 2.8591 7.88702 3.10605 7.36603C3.49251 6.55066 4.10917 5.88775 4.86766 5.4723C5.3523 5.20685 5.87123 5.09919 6.44582 5.04873C6.73678 5.02318 6.95959 5.29499 6.91217 5.58319C6.88883 5.72501 6.86845 5.86771 6.85051 6.01107C6.81059 6.33027 6.7811 6.67018 6.7593 7.02977C6.69757 8.04829 6.69762 9.22465 6.69769 10.535Z" fill="white"/>
<path d="M25.3023 10.535V21.4649C25.3024 22.7753 25.3024 23.9517 25.2407 24.9703C25.2189 25.3299 25.1895 25.6697 25.1495 25.9889C25.1316 26.1323 25.1112 26.2749 25.0879 26.4168C25.0404 26.7051 25.2632 26.9768 25.5541 26.9512C26.1288 26.9008 26.6477 26.7932 27.1324 26.5277C27.8908 26.1123 28.5075 25.4493 28.894 24.634C29.1409 24.1129 29.2411 23.5551 29.288 22.9375C29.3333 22.3407 29.3333 21.6064 29.3333 20.7087V11.2914C29.3333 10.3937 29.3333 9.6593 29.288 9.06257C29.2411 8.44489 29.1409 7.88702 28.894 7.36603C28.5075 6.55066 27.8908 5.88775 27.1324 5.4723C26.6477 5.20685 26.1288 5.09919 25.5541 5.04873C25.2632 5.02318 25.0404 5.29499 25.0879 5.58319C25.1112 5.72501 25.1316 5.86771 25.1495 6.01107C25.1895 6.33027 25.2189 6.67018 25.2407 7.02977C25.3024 8.0483 25.3024 9.22465 25.3023 10.535Z" fill="white"/>
</svg>
