<svg width="33" height="32" viewBox="0 0 33 32" fill="none" xmlns="http://www.w3.org/2000/svg">
<g clip-path="url(#clip0_207_501)">
<path fill-rule="evenodd" clip-rule="evenodd" d="M11.3633 13.0001H6.63667C5.94312 12.9944 5.27568 13.2644 4.78122 13.7507C4.28673 14.2371 4.00572 14.8999 4 15.5934V25.4083C4.01283 26.8519 5.19307 28.0121 6.63667 27.9999H11.3633C12.0568 28.0057 12.7243 27.7357 13.2188 27.2494C13.7133 26.7631 13.9943 26.1003 14 25.4066V15.5934C13.9943 14.8999 13.7133 14.2371 13.2188 13.7507C12.7243 13.2644 12.0568 12.9944 11.3633 13.0001Z" fill="white"/>
<path fill-rule="evenodd" clip-rule="evenodd" d="M11.3633 3.00091H6.63667C5.2221 2.96561 4.04265 3.96709 4 5.23973V6.76027C4.04265 8.03292 5.2221 9.03441 6.63667 8.99909H11.3633C12.7778 9.03441 13.9573 8.03292 14 6.76027V5.23973C13.9573 3.96709 12.7778 2.96561 11.3633 3.00091Z" fill="white"/>
<path fill-rule="evenodd" clip-rule="evenodd" d="M20.6367 17.9999H25.3617C26.0555 18.0061 26.7233 17.7362 27.2182 17.2499C27.713 16.7634 27.9943 16.1004 28 15.4066V5.59338C27.9943 4.89986 27.7133 4.237 27.2188 3.75066C26.7243 3.26432 26.0568 2.99432 25.3633 3.00009H20.6367C19.9432 2.99432 19.2757 3.26432 18.7812 3.75066C18.2867 4.237 18.0057 4.89986 18 5.59338V15.4066C18.0057 16.1001 18.2867 16.7629 18.7812 17.2492C19.2757 17.7356 19.9432 18.0056 20.6367 17.9999Z" fill="white"/>
<path fill-rule="evenodd" clip-rule="evenodd" d="M20.6367 27.9989H25.3617C26.7768 28.0411 27.9573 26.8724 28 25.387V23.613C27.9573 22.1282 26.7778 20.9599 25.3633 21.0011H20.6367C19.2222 20.9599 18.0427 22.1282 18 23.613V25.3852C18.0417 26.8707 19.2215 28.04 20.6367 27.9989Z" fill="white"/>
</g>
<defs>
<clipPath id="clip0_207_501">
<rect width="32.1322" height="32" fill="white"/>
</clipPath>
</defs>
</svg>
