<svg width="22" height="28" viewBox="0 0 22 28" fill="none" xmlns="http://www.w3.org/2000/svg">
<g id="Group">
<path id="Vector" d="M3.99996 0.666626C2.16691 0.666626 0.666626 2.16691 0.666626 3.99996V24C0.666626 25.833 2.16691 27.3333 3.99996 27.3333H18.6666C20.4997 27.3333 22 25.833 22 24L21.9981 9.24526C21.9962 9.15724 21.9278 8.98779 21.8047 8.86194L13.8047 0.861938C13.6796 0.736914 13.5101 0.66666 13.3333 0.666626H3.99996ZM14 2.94267L19.7239 8.66663H16C14.8875 8.66663 14 7.77909 14 6.66663V2.94267ZM11.3333 11.3333C11.7015 11.3333 11.9999 11.6318 12 12V16H16C16.3681 16 16.6666 16.2985 16.6666 16.6666C16.6666 19.6042 14.2709 22 11.3333 22C8.39569 22 5.99996 19.6042 5.99996 16.6666C5.99996 13.729 8.39569 11.3333 11.3333 11.3333Z" fill="white"/>
</g>
</svg>
