<svg width="32" height="32" viewBox="0 0 32 32" fill="none" xmlns="http://www.w3.org/2000/svg">
<g id="info-circle-svgrepo-com 1">
<path id="Vector" fill-rule="evenodd" clip-rule="evenodd" d="M29.3333 16C29.3333 23.3637 23.3637 29.3333 16 29.3333C8.63622 29.3333 2.66669 23.3637 2.66669 16C2.66669 8.63616 8.63622 2.66663 16 2.66663C23.3637 2.66663 29.3333 8.63616 29.3333 16ZM16 23.6666C16.5523 23.6666 17 23.2189 17 22.6666V14.6666C17 14.1144 16.5523 13.6666 16 13.6666C15.4477 13.6666 15 14.1144 15 14.6666V22.6666C15 23.2189 15.4477 23.6666 16 23.6666ZM16 9.33329C16.7364 9.33329 17.3333 9.93025 17.3333 10.6666C17.3333 11.403 16.7364 12 16 12C15.2636 12 14.6667 11.403 14.6667 10.6666C14.6667 9.93025 15.2636 9.33329 16 9.33329Z" fill="white"/>
</g>
</svg>
