<svg width="32" height="32" viewBox="0 0 32 32" fill="none" xmlns="http://www.w3.org/2000/svg">
<path d="M13.6667 5.33342C13.6667 4.92103 13.4136 4.55094 13.0292 4.40144C12.6449 4.25194 12.2082 4.3537 11.9295 4.6577L4.59618 12.6577C4.32821 12.95 4.2583 13.3731 4.41798 13.736C4.57768 14.0991 4.93677 14.3334 5.33334 14.3334H26.6667C27.2189 14.3334 27.6667 13.8856 27.6667 13.3334C27.6667 12.7811 27.2189 12.3334 26.6667 12.3334H13.6667V5.33342Z" fill="white"/>
<path d="M18.3333 26.6666V19.6666H5.33337C4.78108 19.6666 4.33337 19.2189 4.33337 18.6666C4.33337 18.1144 4.78108 17.6666 5.33337 17.6666H26.6667C27.0632 17.6666 27.4224 17.901 27.582 18.264C27.7417 18.627 27.6719 19.0501 27.4039 19.3424L20.0705 27.3424C19.7919 27.6464 19.3552 27.7481 18.9708 27.5986C18.5865 27.4492 18.3333 27.079 18.3333 26.6666Z" fill="white"/>
</svg>
