<svg width="32" height="32" viewBox="0 0 32 32" fill="none" xmlns="http://www.w3.org/2000/svg">
<path d="M4 15.0667C4 8.43936 9.37259 3.06677 16 3.06677C22.6275 3.06677 28 8.43936 28 15.0667M4 15.0667H6.66667C8.13943 15.0667 9.33333 16.2607 9.33333 17.7334V20.4C9.33333 21.8728 8.13943 23.0667 6.66667 23.0667M4 15.0667V21.7334C4 22.4698 4.59696 23.0667 5.33333 23.0667H6.66667M28 15.0667H25.3333C23.8605 15.0667 22.6667 16.2607 22.6667 17.7334V20.4C22.6667 21.8728 23.8605 23.0667 25.3333 23.0667H26.6667C27.4031 23.0667 28 22.4698 28 21.7334V15.0667ZM6.66667 23.0667V24.4C6.66667 25.8728 7.86057 27.0667 9.33333 27.0667H12M12 27.0667C12 28.1714 12.8954 29.0667 14 29.0667H15.3333C16.4379 29.0667 17.3333 28.1714 17.3333 27.0667C17.3333 25.9622 16.4379 25.0667 15.3333 25.0667H14C12.8954 25.0667 12 25.9622 12 27.0667Z" stroke="white" stroke-width="2.5" stroke-linecap="round"/>
</svg>
